<svg xmlns="http://www.w3.org/2000/svg" xmlns:xlink="http://www.w3.org/1999/xlink" width="1080" zoomAndPan="magnify" viewBox="0 0 810 809.999993" height="1080" preserveAspectRatio="xMidYMid meet" version="1.0"><defs><clipPath id="e5b4e6aed2"><path d="M 2 259 L 495 259 L 495 598 L 2 598 Z M 2 259 " clip-rule="nonzero"/></clipPath><clipPath id="6f9178a73b"><path d="M 52.777344 228.230469 L 525.867188 466.253906 L 444.292969 628.386719 L -28.792969 390.359375 Z M 52.777344 228.230469 " clip-rule="nonzero"/></clipPath><clipPath id="33248edd3f"><path d="M 444.210938 425.171875 C 488.980469 447.699219 507.015625 502.253906 484.488281 547.023438 C 461.964844 591.792969 407.410156 609.828125 362.640625 587.300781 L 52.269531 431.148438 C 7.5 408.621094 -10.535156 354.066406 11.992188 309.296875 C 34.519531 264.527344 89.070312 246.492188 133.84375 269.019531 Z M 444.210938 425.171875 " clip-rule="nonzero"/></clipPath><clipPath id="5f409db965"><path d="M 0 0 L 493 0 L 493 339 L 0 339 Z M 0 0 " clip-rule="nonzero"/></clipPath><clipPath id="33a89e346a"><path d="M 50.777344 -30.769531 L 523.867188 207.253906 L 442.292969 369.386719 L -30.792969 131.359375 Z M 50.777344 -30.769531 " clip-rule="nonzero"/></clipPath><clipPath id="d4e8a99adf"><path d="M 442.210938 166.171875 C 486.980469 188.699219 505.015625 243.253906 482.488281 288.023438 C 459.964844 332.792969 405.410156 350.828125 360.640625 328.300781 L 50.269531 172.148438 C 5.5 149.621094 -12.535156 95.066406 9.992188 50.296875 C 32.519531 5.527344 87.070312 -12.507812 131.84375 10.019531 Z M 442.210938 166.171875 " clip-rule="nonzero"/></clipPath><clipPath id="f0a5a7f27a"><rect x="0" width="493" y="0" height="339"/></clipPath><clipPath id="f4cdd7420e"><path d="M 314 259 L 809 259 L 809 598 L 314 598 Z M 314 259 " clip-rule="nonzero"/></clipPath><clipPath id="9bf3940dd9"><path d="M 283.640625 465.804688 L 758.4375 228.023438 L 839.710938 390.304688 L 364.914062 628.085938 Z M 283.640625 465.804688 " clip-rule="nonzero"/></clipPath><clipPath id="641d80bc54"><path d="M 676.890625 268.863281 C 721.703125 246.421875 776.222656 264.554688 798.664062 309.367188 C 821.105469 354.179688 802.972656 408.703125 758.160156 431.144531 L 446.050781 587.449219 C 401.238281 609.890625 346.71875 591.757812 324.277344 546.945312 C 301.835938 502.132812 319.96875 447.609375 364.78125 425.167969 Z M 676.890625 268.863281 " clip-rule="nonzero"/></clipPath><clipPath id="6cfb1bbdc7"><path d="M 0 0 L 495 0 L 495 339 L 0 339 Z M 0 0 " clip-rule="nonzero"/></clipPath><clipPath id="bdb2f37ac2"><path d="M -30.359375 206.804688 L 444.4375 -30.976562 L 525.710938 131.304688 L 50.914062 369.085938 Z M -30.359375 206.804688 " clip-rule="nonzero"/></clipPath><clipPath id="383e3166a4"><path d="M 362.890625 9.863281 C 407.703125 -12.578125 462.222656 5.554688 484.664062 50.367188 C 507.105469 95.179688 488.972656 149.703125 444.160156 172.144531 L 132.050781 328.449219 C 87.238281 350.890625 32.71875 332.757812 10.277344 287.945312 C -12.164062 243.132812 5.96875 188.609375 50.78125 166.167969 Z M 362.890625 9.863281 " clip-rule="nonzero"/></clipPath><clipPath id="2cf2a6d511"><rect x="0" width="495" y="0" height="339"/></clipPath></defs><g clip-path="url(#e5b4e6aed2)"><g clip-path="url(#6f9178a73b)"><g clip-path="url(#33248edd3f)"><g transform="matrix(1, 0, 0, 1, 2, 259)"><g clip-path="url(#f0a5a7f27a)"><g clip-path="url(#5f409db965)"><g clip-path="url(#33a89e346a)"><g clip-path="url(#d4e8a99adf)"><path fill="#595762" d="M 50.777344 -30.769531 L 523.234375 206.9375 L 441.660156 369.066406 L -30.792969 131.359375 Z M 50.777344 -30.769531 " fill-opacity="1" fill-rule="nonzero"/></g></g></g></g></g></g></g></g><g clip-path="url(#f4cdd7420e)"><g clip-path="url(#9bf3940dd9)"><g clip-path="url(#641d80bc54)"><g transform="matrix(1, 0, 0, 1, 314, 259)"><g clip-path="url(#2cf2a6d511)"><g clip-path="url(#6cfb1bbdc7)"><g clip-path="url(#bdb2f37ac2)"><g clip-path="url(#383e3166a4)"><path fill="#595762" d="M -30.359375 206.804688 L 443.804688 -30.660156 L 525.074219 131.621094 L 50.914062 369.085938 Z M -30.359375 206.804688 " fill-opacity="1" fill-rule="nonzero"/></g></g></g></g></g></g></g></g></svg>